/* XPM */
static char * help_xpm[] = {
"22 22 3 1",
" 	c #BEFBBEFBBEFB",
".	c #FFFF14514103",
"X	c #000000000000",
"                      ",
"                      ",
"                      ",
"    ....  ...         ",
"   ...........        ",
"  X....... ...        ",
"   X...........       ",
"   X....... ....      ",
"    X...........      ",
"    X....... ....     ",
"     X............    ",
"     X....... ....    ",
"      X..   .......   ",
"       X              ",
"       X              ",
"        X             ",
"        X             ",
"         X            ",
"         X            ",
"          X           ",
"                      ",
"                      "};
