/* XPM */
static char * join_xpm[] = {
"22 22 4 1",
" 	c #BEFBBEFBBEFB",
".	c #51445144FFFF",
"X	c #FFFFFFFFFFFF",
"o	c #000000000000",
"                      ",
"   ................   ",
"   ................X  ",
"   ................X  ",
"   ...XXXXXXXXXX...X  ",
"   ...X         ...X  ",
"   ...X   o  o  ...X  ",
"   ...X ooooooo ...X  ",
"   ...X  oXXoXXX...X  ",
"   ...Xooooooo  ...X  ",
"   ...X oXXoXXX ...X  ",
"   ...X  X  X   ...X  ",
"   ...X         ...X  ",
"   ...X         ...X  ",
"   .....      .....X  ",
"   .....X     .....X  ",
"   .....X oo  .....X  ",
"    XXXXXoooo  XXXXX  ",
"        oooooo        ",
"          ooXXX       ",
"          ooX         ",
"          ooX         "};
