/* XPM */
static char * kick_xpm[] = {
"22 22 4 1",
" 	c #BEFBBEFBBEFB",
".	c #000000000000",
"X	c #FFFFFFFF0000",
"o	c #FFFFFFFFFFFF",
"                      ",
"           ...        ",
"           X...  X    ",
"          XXX.. XXo   ",
"           Xo..  ooo  ",
" XXooooooooooooo  oo  ",
"  Xooooooooooooooooo  ",
"           ooooooooo  ",
"           oooo       ",
"           ooo        ",
"           ...        ",
"          oo.oo       ",
"         oo.o.oo      ",
"         oooooooo     ",
"       oooo   ooo     ",
"       ooo     ooo    ",
"       ooo     ooo    ",
"       oooo   ooo     ",
"         ..   ..      ",
"       ....   ....    ",
"                      ",
"                      "};
