/* XPM */
static char * leave_xpm[] = {
"22 22 4 1",
" 	c #BEFBBEFBBEFB",
".	c #51445144FFFF",
"X	c #FFFFFFFFFFFF",
"o	c #000000000000",
"                      ",
"   ................   ",
"   ................X  ",
"   ................X  ",
"   ...XXXXoXXoXX...X  ",
"   ...X ooooooo ...X  ",
"   ...X  oXXoXX ...X  ",
"   ...Xooooooo  ...X  ",
"   ...X oXXoXXX ...X  ",
"   ...X  XooX   ...X  ",
"   ...X   ooX   ...X  ",
"   ...X   ooX   ...X  ",
"   ...X   ooX   ...X  ",
"   ...X oooooo  ...X  ",
"   ..... ooooX.....X  ",
"   .....X ooX .....X  ",
"   .....X     .....X  ",
"    XXXXX      XXXXX  ",
"                      ",
"                      ",
"                      ",
"                      "};
