/* XPM */
static char * op_xpm[] = {
"22 22 4 1",
" 	c #BEFBBEFBBEFB",
".	c #FFFFFFFF0000",
"X	c #FFFF14514103",
"o	c #51445144FFFF",
"                      ",
"                      ",
"                      ",
"          ..          ",
"         ....         ",
"          ..          ",
"   .              .   ",
"  ... ..  ..  .. ...  ",
" ..  ............  .. ",
" .. X...X....X...X .. ",
"  ..XX..X....X..XX..  ",
"  ...X..XX..XX..XX..  ",
"   ..X..XX..XX..X..   ",
"   ..X..XX..XX..X..   ",
"   ................   ",
"   .o..o..o..o..o..   ",
"   ................   ",
"                      ",
"                      ",
"                      ",
"                      ",
"                      "};
