/* XPM */
static char * query_xpm[] = {
"22 22 3 1",
" 	c #BEFBBEFBBEFB",
".	c #000000000000",
"X	c #FFFFFFFFFFFF",
"                      ",
"      ........        ",
"    ..XXXXXXXX..      ",
"   .XXXXXXXXXXXX.     ",
"  .X.X.X...X.X.XX.    ",
" .XX.X.X.XXX.X.XXX.   ",
" .XX.X.X.XXX.X.XXX.   ",
" .XX...X...X...XXX.   ",
" .XX.X.X.XXXXX.XXX.   ",
"  .X.X.X...X.X.XX.    ",
"   .XXXXXXXXX.XX.     ",
"    ..XXXXXXXX..      ",
"     .........        ",
"     .                ",
"    ..                ",
"    .                 ",
"   .                  ",
"                      ",
"                      ",
"                      ",
"                      ",
"                      "};
