/* XPM */
static char * quit_xpm[] = {
"22 22 5 1",
" 	c #BEFBBEFBBEFB",
".	c #000000000000",
"X	c #FFFF14514103",
"o	c #FFFFFFFF0000",
"O	c #FFFFFFFFFFFF",
"                      ",
"                      ",
"           ...    X   ",
"          .   .   X   ",
"          .    .X o X ",
"           .   . o o  ",
"          ..   Xo.OOoo",
"         ....    o o  ",
"       ........ X o X ",
"      ..OO......  X   ",
"     ..OO........ X   ",
"     .OOO........     ",
"    ..............    ",
"    .OOO..........    ",
"    ..OO..........    ",
"    ..OO..........    ",
"     ..O.........     ",
"     ............     ",
"      ..........      ",
"       ........       ",
"         ....         ",
"                      "};
