/* XPM */
static char * tjoin_xpm[] = {
"22 22 4 1",
" 	c #BEFBBEFBBEFB",
".	c #51445144FFFF",
"X	c #FFFFFFFFFFFF",
"o	c #000000000000",
"                      ",
"   ................   ",
"   ................X  ",
"   ................X  ",
"   ...XXXXoXXoXX...X  ",
"   ...X ooooooo ...X  ",
"   ...X  oXXoXX ...X  ",
"   ...Xooooooo  ...X  ",
"   ...X oXXoXXX ...X  ",
"   ...X  X  X   ...X  ",
"   ...X   oo    ...X  ",
"   ...X  oooo   ...X  ",
"   ...X oooooo  ...X  ",
"   ...X   ooXXX ...X  ",
"   .....  ooX .....X  ",
"   .....X ooX .....X  ",
"   .....X ooX .....X  ",
"    XXXXX ooX  XXXXX  ",
"          ooX         ",
"          ooX         ",
"           XX         ",
"                      "};
