/* XPM */
static char * tkick_xpm[] = {
"22 22 4 1",
" 	c #BEFBBEFBBEFB",
".	c #000000000000",
"X	c #FFFFFFFF0000",
"o	c #FFFFFFFFFFFF",
"                      ",
"              ...     ",
"              X...    ",
"             XXX..    ",
"              Xo..    ",
"    XXooooooooooooooo ",
"     Xoooooooooooooooo",
"             .oooo  oo",
" .oooooooooooo..ooXooo",
" .oooooooooooooo. Xoo ",
"              ooo     ",
"         ..oo ooo     ",
"          .ooooo      ",
"           oooo       ",
"                      ",
"                      ",
"                      ",
"                      ",
"  ..................  ",
"        .........     ",
"                      ",
"                      "};
