/* XPM */
static char * top_xpm[] = {
"22 22 5 1",
" 	c #BEFBBEFBBEFB",
".	c #FFFFFFFFFFFF",
"X	c #FFFFFFFF0000",
"o	c #FFFF14514103",
"O	c #51445144FFFF",
"  .        .          ",
"  .    .   .      .   ",
".. ..         .  . .  ",
"  .       XX      .   ",
"  .  .   XXXX         ",
"          XX   .      ",
"   X              X   ",
"  XXX XX  XX  XX XXX  ",
" XX  XXXXXXXXXXXX  XX ",
" XX oXXXoXXXXoXXXo XX ",
"  XXooXXoXXXXoXXooXX  ",
"  XXXoXXooXXooXXooXX  ",
"   XXoXXooXXooXXoXX  .",
"   XXoXXooXXooXXoXX   ",
" . XXXXXXXXXXXXXXXX   ",
"   XOXXOXXOXXOXXOXX   ",
"   XXXXXXXXXXXXXXXX   ",
"                      ",
"  .     .   .     .   ",
" . .       . .       .",
"  .   .     .       . ",
"                .    ."};
