/* XPM */
static char * tquery_xpm[] = {
"22 22 3 1",
" 	c #BEFBBEFBBEFB",
".	c #000000000000",
"X	c #FFFFFFFFFFFF",
"                      ",
"      ........        ",
"    ..XXXXXXXX..      ",
"   .XXXXXXXXXXXX.     ",
"  .X.X.X...X.X.XX.    ",
" .XX.X.X.XXX.X.XXX.   ",
" .XX.X.X.XXX.X.XXX.   ",
" .XX...X...X...XXX.   ",
" .XX.X.X.XXXXX.XXX.   ",
"  .X.X.X...X......    ",
"   .XXXXXX..XXXXXX..  ",
"    ..XXX.XX.X.X.XXX. ",
"     ....XXX.X.X.XXXX.",
"     .  .XXX.X.X.XXXX.",
"    ..  .XXX...X.XXXX.",
"    .   .XXX.X.X.XXXX.",
"   .     .XX.X.X.XXX. ",
"          ..XXXXXX..  ",
"            .......   ",
"                 .    ",
"                  ..  ",
"                      "};
