/* XPM */
static char * tquit_xpm[] = {
"22 22 5 1",
" 	c #BEFBBEFBBEFB",
".	c #000000000000",
"X	c #FFFF14514103",
"o	c #FFFFFFFF0000",
"O	c #FFFFFFFFFFFF",
"                      ",
"                 .    ",
"          .X     .X   ",
" .    .X .XX    ..X   ",
" .X .X.. .XX  ..XXX   ",
" ..XXoXXXXXoX.XXXXX   ",
"  .XoXXXoXXoXXXXoXX . ",
"  .XXoXXooXoXXXooXX.X ",
"   .XooXoooooXooXXXXX ",
" .XXXoooooooXXoooXXX  ",
" XXXXXXXooooXooooXX.. ",
"    XXoooooOooooXXXXX ",
"  ..oXXXooOOoOooXooXX ",
" .XXXXXXooOOOooooooX  ",
"..XooooooOOOOOooooX.  ",
".XXXoooooooOoOOXoX.XX ",
"   .XXooXooOoooXXXXX  ",
"  .XoooXXooooooooXX.  ",
"  XXoXXXooooooXXoo.X. ",
"  .XX.Xooo.XooXXXXXXX ",
" .XX .XX.XXXoXX.X.    ",
"       XX.XXXXX XX    "};
