/* XPM */
static char * twhois_xpm[] = {
"22 22 5 1",
" 	c #BEFBBEFBBEFB",
".	c #000000000000",
"X	c #FFFFFFFFFFFF",
"o	c #51445144FFFF",
"O	c #FFFF14514103",
"       .....XX        ",
"     .........XX      ",
"   ....     ...XX     ",
"  ...   XXX  X...X    ",
"  ..  XXXoo   X..X    ",
" ..  XXXoooo   X..X   ",
" ..  XXo   oo  X..X   ",
"..    oo   oo   X..X  ",
".. XXX     oo   X..X  ",
".. XXX    oo    X..X  ",
".. XXX   ooo    X..X  ",
"..  XX   oo     X..X  ",
" .. XX         X..X   ",
" ..  XX  oo    X..X   ",
"  ..  X  oo   X..X    ",
"  ...       XX...XX   ",
"   ....    X....OO.X  ",
"     .........  O...X ",
"       .....    .....X",
"                 .....",
"                  ....",
"                   ..."};
