/* XPM */
static char * whois_xpm[] = {
"22 22 4 1",
" 	c #BEFBBEFBBEFB",
".	c #000000000000",
"X	c #FFFFFFFFFFFF",
"o	c #FFFF14514103",
"                      ",
"    .....X            ",
"   .     .X           ",
"  . XXX   .X          ",
" .  XX     .X         ",
" .         .X         ",
" . XX      .X         ",
" . XX     X.X         ",
" .  X     X.X         ",
"  .      X.X          ",
"   .    X..XX         ",
"    ..... .ooX        ",
"           o..X       ",
"            ...X      ",
"             ...X     ",
"              ...X    ",
"               ...X   ",
"                ...X  ",
"                 ...X ",
"                  ..o ",
"                   oo ",
"                      "};
